<svg width="86" height="15" viewBox="0 0 86 15" fill="none" xmlns="http://www.w3.org/2000/svg">
<path d="M6.846 8.83H2.59L1.806 11H0.462L3.99 1.298H5.46L8.974 11H7.63L6.846 8.83ZM6.482 7.794L4.718 2.866L2.954 7.794H6.482ZM11.7856 0.64V11H10.5116V0.64H11.7856ZM20.7609 3.328V11H19.4869V9.866C19.2442 10.258 18.9036 10.566 18.4649 10.79C18.0356 11.0047 17.5596 11.112 17.0369 11.112C16.4396 11.112 15.9029 10.9907 15.4269 10.748C14.9509 10.496 14.5729 10.1227 14.2929 9.628C14.0222 9.13333 13.8869 8.53133 13.8869 7.822V3.328H15.1469V7.654C15.1469 8.41 15.3382 8.99333 15.7209 9.404C16.1036 9.80533 16.6262 10.006 17.2889 10.006C17.9702 10.006 18.5069 9.796 18.8989 9.376C19.2909 8.956 19.4869 8.34467 19.4869 7.542V3.328H20.7609ZM24.186 4.574C24.41 4.13533 24.7273 3.79467 25.138 3.552C25.558 3.30933 26.0667 3.188 26.664 3.188V4.504H26.328C24.9 4.504 24.186 5.27867 24.186 6.828V11H22.912V3.328H24.186V4.574ZM27.6586 7.136C27.6586 6.352 27.8173 5.666 28.1346 5.078C28.452 4.48067 28.886 4.01867 29.4366 3.692C29.9966 3.36533 30.6173 3.202 31.2986 3.202C31.9706 3.202 32.554 3.34667 33.0486 3.636C33.5433 3.92533 33.912 4.28933 34.1546 4.728V3.328H35.4426V11H34.1546V9.572C33.9026 10.02 33.5246 10.3933 33.0206 10.692C32.526 10.9813 31.9473 11.126 31.2846 11.126C30.6033 11.126 29.9873 10.958 29.4366 10.622C28.886 10.286 28.452 9.81467 28.1346 9.208C27.8173 8.60133 27.6586 7.91067 27.6586 7.136ZM34.1546 7.15C34.1546 6.57133 34.038 6.06733 33.8046 5.638C33.5713 5.20867 33.254 4.882 32.8526 4.658C32.4606 4.42467 32.0266 4.308 31.5506 4.308C31.0746 4.308 30.6406 4.42 30.2486 4.644C29.8566 4.868 29.544 5.19467 29.3106 5.624C29.0773 6.05333 28.9606 6.55733 28.9606 7.136C28.9606 7.724 29.0773 8.23733 29.3106 8.676C29.544 9.10533 29.8566 9.43667 30.2486 9.67C30.6406 9.894 31.0746 10.006 31.5506 10.006C32.0266 10.006 32.4606 9.894 32.8526 9.67C33.254 9.43667 33.5713 9.10533 33.8046 8.676C34.038 8.23733 34.1546 7.72867 34.1546 7.15ZM42.602 9.964H46.018V11H41.328V1.242H42.602V9.964ZM48.645 3.328V11H47.371V3.328H48.645ZM49.373 1.158L46.391 2.754V1.802L49.373 0.0519991V1.158ZM54.5543 3.188C55.4876 3.188 56.2436 3.47267 56.8223 4.042C57.4009 4.602 57.6903 5.414 57.6903 6.478V11H56.4303V6.66C56.4303 5.89467 56.2389 5.31133 55.8563 4.91C55.4736 4.49933 54.9509 4.294 54.2883 4.294C53.6163 4.294 53.0796 4.504 52.6783 4.924C52.2863 5.344 52.0903 5.95533 52.0903 6.758V11H50.8163V3.328H52.0903V4.42C52.3423 4.028 52.6829 3.72467 53.1123 3.51C53.5509 3.29533 54.0316 3.188 54.5543 3.188ZM62.9354 3.202C63.598 3.202 64.1767 3.34667 64.6714 3.636C65.1754 3.92533 65.5487 4.28933 65.7914 4.728V3.328H67.0794V11.168C67.0794 11.868 66.93 12.4887 66.6314 13.03C66.3327 13.5807 65.9034 14.01 65.3434 14.318C64.7927 14.626 64.1487 14.78 63.4114 14.78C62.4034 14.78 61.5634 14.542 60.8914 14.066C60.2194 13.59 59.8227 12.9413 59.7014 12.12H60.9614C61.1014 12.5867 61.3907 12.96 61.8294 13.24C62.268 13.5293 62.7954 13.674 63.4114 13.674C64.1114 13.674 64.6807 13.4547 65.1194 13.016C65.5674 12.5773 65.7914 11.9613 65.7914 11.168V9.558C65.5394 10.006 65.166 10.3793 64.6714 10.678C64.1767 10.9767 63.598 11.126 62.9354 11.126C62.254 11.126 61.6334 10.958 61.0734 10.622C60.5227 10.286 60.0887 9.81467 59.7714 9.208C59.454 8.60133 59.2954 7.91067 59.2954 7.136C59.2954 6.352 59.454 5.666 59.7714 5.078C60.0887 4.48067 60.5227 4.01867 61.0734 3.692C61.6334 3.36533 62.254 3.202 62.9354 3.202ZM65.7914 7.15C65.7914 6.57133 65.6747 6.06733 65.4414 5.638C65.208 5.20867 64.8907 4.882 64.4894 4.658C64.0974 4.42467 63.6634 4.308 63.1874 4.308C62.7114 4.308 62.2774 4.42 61.8854 4.644C61.4934 4.868 61.1807 5.19467 60.9474 5.624C60.714 6.05333 60.5974 6.55733 60.5974 7.136C60.5974 7.724 60.714 8.23733 60.9474 8.676C61.1807 9.10533 61.4934 9.43667 61.8854 9.67C62.2774 9.894 62.7114 10.006 63.1874 10.006C63.6634 10.006 64.0974 9.894 64.4894 9.67C64.8907 9.43667 65.208 9.10533 65.4414 8.676C65.6747 8.23733 65.7914 7.72867 65.7914 7.15ZM76.0363 3.328V11H74.7623V9.866C74.5196 10.258 74.179 10.566 73.7403 10.79C73.311 11.0047 72.835 11.112 72.3123 11.112C71.715 11.112 71.1783 10.9907 70.7023 10.748C70.2263 10.496 69.8483 10.1227 69.5683 9.628C69.2976 9.13333 69.1623 8.53133 69.1623 7.822V3.328H70.4223V7.654C70.4223 8.41 70.6136 8.99333 70.9963 9.404C71.379 9.80533 71.9016 10.006 72.5643 10.006C73.2456 10.006 73.7823 9.796 74.1743 9.376C74.5663 8.956 74.7623 8.34467 74.7623 7.542V3.328H76.0363ZM77.7114 7.136C77.7114 6.352 77.87 5.666 78.1874 5.078C78.5047 4.48067 78.9387 4.01867 79.4894 3.692C80.0494 3.36533 80.67 3.202 81.3514 3.202C82.0234 3.202 82.6067 3.34667 83.1014 3.636C83.596 3.92533 83.9647 4.28933 84.2074 4.728V3.328H85.4954V11H84.2074V9.572C83.9554 10.02 83.5774 10.3933 83.0734 10.692C82.5787 10.9813 82 11.126 81.3374 11.126C80.656 11.126 80.04 10.958 79.4894 10.622C78.9387 10.286 78.5047 9.81467 78.1874 9.208C77.87 8.60133 77.7114 7.91067 77.7114 7.136ZM84.2074 7.15C84.2074 6.57133 84.0907 6.06733 83.8574 5.638C83.624 5.20867 83.3067 4.882 82.9054 4.658C82.5134 4.42467 82.0794 4.308 81.6034 4.308C81.1274 4.308 80.6934 4.42 80.3014 4.644C79.9094 4.868 79.5967 5.19467 79.3634 5.624C79.13 6.05333 79.0134 6.55733 79.0134 7.136C79.0134 7.724 79.13 8.23733 79.3634 8.676C79.5967 9.10533 79.9094 9.43667 80.3014 9.67C80.6934 9.894 81.1274 10.006 81.6034 10.006C82.0794 10.006 82.5134 9.894 82.9054 9.67C83.3067 9.43667 83.624 9.10533 83.8574 8.676C84.0907 8.23733 84.2074 7.72867 84.2074 7.15Z" fill="#474646"/>
</svg>
